<svg xmlns="http://www.w3.org/2000/svg" width="180" height="180" viewBox="0 0 180 180">
  <defs>
    <linearGradient id="b" x1="0" x2="1" y1="0" y2="1">
      <stop offset="0" stop-color="#7A3CEF"/>
      <stop offset="1" stop-color="#4B159D"/>
    </linearGradient>
    <filter id="shadow" x="-40%" y="-40%" width="180%" height="180%">
      <feDropShadow dx="0" dy="16" stdDeviation="12" flood-color="#1e0b45" flood-opacity=".25"/>
    </filter>
  </defs>
  <circle cx="90" cy="86" r="78" fill="#E9DFFF"/>
  <g filter="url(#shadow)">
    <path d="M40 64c0-8 6-14 14-14h72c8 0 14 6 14 14l8 70c1 9-6 16-15 16H47c-9 0-16-7-15-16l8-70Z" fill="url(#b)"/>
    <path d="M68 64V42c0-18 12-30 22-30s22 12 22 30v22" fill="none" stroke="#4B159D" stroke-width="12" stroke-linecap="round"/>
    <circle cx="68" cy="66" r="7" fill="#fff"/>
    <circle cx="112" cy="66" r="7" fill="#fff"/>
    <path d="M73 92v24c0 18 12 31 29 31s29-13 29-31V92" fill="none" stroke="#fff" stroke-width="17" stroke-linecap="round"/>
  </g>
</svg>
